<?xml version="1.0" encoding="utf-8"?>
<!DOCTYPE svg PUBLIC "-//W3C//DTD SVG 1.1//EN" "http://www.w3.org/Graphics/SVG/1.1/DTD/svg11.dtd">
<svg version="1.1" id="Layer_1"
	 xmlns="http://www.w3.org/2000/svg" xmlns:xlink="http://www.w3.org/1999/xlink" x="0px" y="0px" width="128px" height="128px"
	 viewBox="0 0 128 128" enable-background="new 0 0 128 128" xml:space="preserve">
<title>icon</title>
<g id="Page-1">
	<g id="icon">
		<g id="Triangle-2-_x2B_-Triangle-3">
			<rect id="Rectangle-315" fill="#03B0D8" width="128" height="128">
			</rect>
			<g>
				<path id="Triangle-2" fill="#FFFFFF" d="M65.299,28.987l3.456,4.415l0,0l-5.603,7.158l-3.455-4.416
					L65.299,28.987z M63.152,26.245l-5.624-7.186L24.951,60.684h11.204l21.374-27.31l0.022,0.028L63.152,26.245z M70.9,36.144
					l19.206,24.54H78.902l0,0L65.299,43.302L70.9,36.144L70.9,36.144z"/>
				<path id="Triangle-3" fill="#FFFFFF" d="M92.297,60.684H103.5L70.922,19.059L38.345,60.684h11.204
					l21.373-27.31L92.297,60.684z"/>
			</g>
			<path fill="#F9F9F9" d="M40.141,90.555h4.5v22.5h-24v-22.5h4.5v-1.5c0-0.6,0.22-1.13,0.66-1.59c0.44-0.439,0.97-0.66,1.59-0.66
				s1.15,0.221,1.59,0.66c0.44,0.46,0.66,0.99,0.66,1.59v1.5h6v-1.5c0-0.6,0.219-1.13,0.66-1.59c0.439-0.439,0.969-0.66,1.59-0.66
				c0.619,0,1.148,0.221,1.59,0.66c0.439,0.46,0.66,0.99,0.66,1.59V90.555z M43.141,111.555v-15h-21v15H43.141z M28.14,98.055v3h-3
				v-3H28.14z M28.14,102.555v3h-3v-3H28.14z M28.14,107.055v3h-3v-3H28.14z M26.64,89.055v3.75c0,0.21,0.075,0.391,0.225,0.54
				c0.14,0.14,0.315,0.21,0.525,0.21s0.385-0.07,0.525-0.21c0.15-0.149,0.225-0.33,0.225-0.54v-3.75c0-0.22-0.075-0.395-0.225-0.525
				c-0.13-0.149-0.305-0.225-0.525-0.225c-0.22,0-0.395,0.075-0.525,0.225C26.715,88.66,26.64,88.835,26.64,89.055z M31.14,98.055h3
				v3h-3V98.055z M31.14,102.555h3v3h-3V102.555z M34.141,110.055h-3v-3h3V110.055z M37.141,89.055v3.75
				c0,0.2,0.07,0.381,0.209,0.54c0.16,0.14,0.34,0.21,0.541,0.21c0.199,0,0.379-0.07,0.539-0.21c0.141-0.159,0.211-0.34,0.211-0.54
				v-3.75c0-0.21-0.07-0.385-0.211-0.525c-0.15-0.149-0.33-0.225-0.539-0.225c-0.211,0-0.391,0.075-0.541,0.225
				C37.211,88.67,37.141,88.845,37.141,89.055z M37.141,101.055v-3h3v3H37.141z M37.141,105.555v-3h3v3H37.141z M40.141,110.055h-3
				v-3h3V110.055z M62.094,113.697c-7.097,0-12.855-5.758-12.855-12.855s5.758-12.855,12.855-12.855s12.855,5.758,12.855,12.855
				S69.191,113.697,62.094,113.697z M62.094,91.736c-5.021,0-9.106,4.084-9.106,9.105s4.084,9.105,9.106,9.105
				c5.021,0,9.105-4.084,9.105-9.105S67.115,91.736,62.094,91.736z M64.236,102.449c0,0.301-0.234,0.535-0.535,0.535h-5.356
				c-0.301,0-0.536-0.234-0.536-0.535v-1.072c0-0.301,0.234-0.535,0.536-0.535h3.75v-5.893c0-0.301,0.234-0.535,0.535-0.535h1.072
				c0.301,0,0.535,0.234,0.535,0.535V102.449z M101.501,92.439c-3.532,6.311-7.03,12.654-10.562,18.965l-0.82,1.489
				c-0.102,0.168-0.285,0.269-0.469,0.269c-0.302,0-1.893-0.971-2.243-1.172c-0.167-0.101-0.269-0.268-0.269-0.469
				c0-0.268,0.57-1.172,0.736-1.457c-3.246-1.473-5.975-3.983-7.9-6.996c-0.217-0.335-0.334-0.736-0.334-1.155
				c0-0.401,0.117-0.82,0.334-1.155c3.314-5.088,8.486-8.486,14.664-8.486c1.004,0,2.025,0.101,3.013,0.285l0.903-1.624
				c0.101-0.167,0.269-0.269,0.469-0.269c0.302,0,1.875,0.971,2.227,1.172c0.167,0.101,0.268,0.268,0.268,0.452
				C101.518,92.322,101.518,92.405,101.501,92.439z M90.236,105.83c-1.942-1.406-3.098-3.666-3.098-6.06
				c0-1.322,0.352-2.628,1.021-3.767c-2.611,1.34-4.787,3.449-6.377,5.909c1.74,2.694,4.201,4.954,7.146,6.276L90.236,105.83z
				 M94.639,94.682c-2.796,0-5.089,2.293-5.089,5.089c0,0.435,0.368,0.804,0.804,0.804c0.435,0,0.803-0.369,0.803-0.804
				c0-1.925,1.574-3.481,3.482-3.481c0.435,0,0.803-0.369,0.803-0.804S95.073,94.682,94.639,94.682z M109.302,103.068
				c-0.52,0.854-1.172,1.674-1.825,2.427c-3.28,3.767-7.8,6.06-12.838,6.06l1.238-2.209c4.871-0.419,9.006-3.382,11.617-7.433
				c-1.239-1.925-2.829-3.616-4.721-4.921l1.055-1.875c2.075,1.389,4.168,3.481,5.474,5.641c0.218,0.369,0.335,0.721,0.335,1.155
				S109.52,102.699,109.302,103.068z M97.316,106.768l4.687-8.403c0.084,0.469,0.134,0.938,0.134,1.406
				C102.137,102.884,100.212,105.662,97.316,106.768z"/>
			<path d="M64.594,62.396v7.47h7.184v1.906h-7.184v7.533H62.56v-7.533h-7.183v-1.906h7.183v-7.47H64.594z"/>
		</g>
	</g>
</g>
</svg>
